<svg width="32" height="32" viewBox="0 0 32 32" fill="none" xmlns="http://www.w3.org/2000/svg">
<path fill-rule="evenodd" clip-rule="evenodd" d="M31.1266 15.1266L16 0L9.12132 6.87868L4.18198 1.93934C3.59619 1.35355 2.64645 1.35355 2.06066 1.93934C1.47487 2.52513 1.47487 3.47487 2.06066 4.06066L6.99999 9L0.78792 15.2121L0 16L0.452843 16.4528L16 32L23 25L27.9393 29.9393C28.5251 30.5251 29.4749 30.5251 30.0607 29.9393C30.6464 29.3536 30.6464 28.4038 30.0607 27.818L25.1213 22.8787L31.7662 16.2338L22.5196 20.277L21.5392 19.2966L31.1266 15.1266ZM15.859 13.6164V3.17182L10.6384 8.39579L15.859 13.6164ZM8.5178 10.5178L15.859 17.859V21.6025L15.859 21.6025V21.7671L2.90595 16.1333L8.5178 10.5178ZM15.859 23.1894V21.7671L18.5825 20.5825L19.5677 21.5677L15.859 23.1894ZM15.859 23.1894V29.2305L5.13615 18.5007L15.859 23.1894Z" fill="black"/>
</svg>
