<svg width="32" height="32" viewBox="0 0 32 32" fill="none" xmlns="http://www.w3.org/2000/svg">
<g clip-path="url(#clip0_607:23)">
<g filter="url(#filter0_d_607:23)">
<path fill-rule="evenodd" clip-rule="evenodd" d="M1.77883 14.2406L0 16.0064L1.77883 17.7723L2.66099 16.8966L1.76431 16.0064L2.66099 15.1163L1.77883 14.2406ZM4.45435 13.336L3.57219 12.4603L5.36555 10.6801L6.2477 11.5558L4.45435 13.336ZM8.04106 9.77551L9.83442 7.99524L8.95227 7.11953L7.15891 8.8998L8.04106 9.77551ZM11.6278 6.21498L10.7456 5.33926L12.539 3.559L13.4211 4.43471L11.6278 6.21498ZM18.7619 4.47372L19.6569 3.61089L21.424 5.41716L20.5291 6.27999L18.7619 4.47372ZM22.2963 8.08626L23.1912 7.22343L24.9584 9.0297L24.0634 9.89253L22.2963 8.08626ZM25.8306 11.6988L26.7255 10.836L28.4927 12.6422L27.5977 13.5051L25.8306 11.6988ZM27.5977 18.8459L28.4799 19.7216L26.7127 21.4758L25.8306 20.6001L27.5977 18.8459ZM24.0634 22.3544L24.9456 23.2301L23.1784 24.9844L22.2963 24.1087L24.0634 22.3544ZM20.5291 25.8629L21.4112 26.7386L19.6441 28.4929L18.7619 27.6172L20.5291 25.8629ZM13.4211 27.5782L11.6278 25.7979L10.7456 26.6736L12.539 28.4539L13.4211 27.5782ZM9.83442 24.0176L8.04106 22.2374L7.15891 23.1131L8.95227 24.8934L9.83442 24.0176ZM6.24771 20.4571L5.36555 21.3328L3.57219 19.5526L4.45435 18.6768L6.24771 20.4571ZM15.2145 29.3584L16.1112 30.2486L16.9948 29.3714L17.8769 30.2472L16.1112 32L14.3323 30.2342L15.2145 29.3584ZM29.3649 17.0916L30.2471 17.9673L32 16.2272L30.2598 14.4485L29.3649 15.3113L30.2485 16.2145L29.3649 17.0916ZM16.9948 2.66745L17.8897 1.80462L16.1242 0L14.3323 1.77873L15.2145 2.65444L16.1112 1.76431L16.9948 2.66745Z" fill="black"/>
</g>
</g>
<defs>
<filter id="filter0_d_607:23" x="-4" y="0" width="40" height="40" filterUnits="userSpaceOnUse" color-interpolation-filters="sRGB">
<feFlood flood-opacity="0" result="BackgroundImageFix"/>
<feColorMatrix in="SourceAlpha" type="matrix" values="0 0 0 0 0 0 0 0 0 0 0 0 0 0 0 0 0 0 127 0" result="hardAlpha"/>
<feOffset dy="4"/>
<feGaussianBlur stdDeviation="2"/>
<feComposite in2="hardAlpha" operator="out"/>
<feColorMatrix type="matrix" values="0 0 0 0 0 0 0 0 0 0 0 0 0 0 0 0 0 0 0.25 0"/>
<feBlend mode="normal" in2="BackgroundImageFix" result="effect1_dropShadow_607:23"/>
<feBlend mode="normal" in="SourceGraphic" in2="effect1_dropShadow_607:23" result="shape"/>
</filter>
<clipPath id="clip0_607:23">
<rect width="32" height="32" fill="white"/>
</clipPath>
</defs>
</svg>
