<svg width="32" height="32" viewBox="0 0 32 32" fill="none" xmlns="http://www.w3.org/2000/svg">
<path fill-rule="evenodd" clip-rule="evenodd" d="M5.19905 26.3298C4.94543 27.3909 4.70894 28.3804 4.46382 29.2666C4.31659 29.7989 3.76572 30.111 3.23342 29.9638C2.70112 29.8166 2.38897 29.2657 2.5362 28.7334C2.7527 27.9507 2.96986 27.0387 3.2091 26.0339C4.11982 22.2092 5.35054 17.0406 8.08288 12.5433C9.82904 9.66915 12.2072 7.02045 15.5387 5.09512C18.8714 3.16914 23.1013 2 28.5 2C29.0523 2 29.5 2.44771 29.5 3C29.5 3.55228 29.0523 4 28.5 4C23.3988 4 19.5244 5.1017 16.5394 6.82676C13.5533 8.55247 11.4001 10.935 9.79214 13.5817C7.24318 17.7772 6.11053 22.5162 5.19905 26.3298Z" fill="black"/>
</svg>
